<svg aria-hidden="true" style="position: absolute; width: 0; height: 0; overflow: hidden;" version="1.1" xmlns="http://www.w3.org/2000/svg" xmlns:xlink="http://www.w3.org/1999/xlink">
<defs>



<symbol id="icon-close" viewBox="0 0 32 32">
<path d="M30.355 32c0.422 0 0.843-0.16 1.163-0.483 0.643-0.643 0.643-1.685 0-2.328l-28.707-28.707c-0.643-0.643-1.685-0.643-2.328 0s-0.643 1.685 0 2.329l28.707 28.706c0.323 0.321 0.744 0.483 1.165 0.483z"></path>
<path d="M1.645 32c0.422 0 0.843-0.16 1.163-0.483l28.709-28.706c0.643-0.643 0.643-1.686 0-2.329s-1.685-0.643-2.329 0l-28.707 28.707c-0.643 0.643-0.643 1.685 0 2.328 0.323 0.321 0.744 0.483 1.163 0.483z"></path>
</symbol>


<symbol id="icon-location" viewBox="0 0 23 32">
<path d="M11.733 0c6.47 0 11.733 5.13 11.733 11.435 0 2.495-0.809 4.866-2.341 6.855l-8.669 11.379c-0.022 0.028-0.055 0.038-0.079 0.063-0.433 0.452-1.058 0.338-1.367-0.063-2.496-3.247-7.072-9.309-8.832-11.596 0 0-0.001-0.002-0.001-0.003l-0.011-0.014c-1.418-1.941-2.167-4.23-2.167-6.621 0-6.305 5.264-11.435 11.733-11.435zM11.733 17.604c3.483 0 6.33-2.774 6.33-6.169s-2.847-6.169-6.33-6.169c-3.483 0-6.33 2.774-6.33 6.169s2.847 6.169 6.33 6.169z"></path>
</symbol>


<symbol id="icon-phone" viewBox="0 0 32 32">
<path d="M29.43 20.469c-1.959 0-3.882-0.299-5.705-0.886-0.893-0.297-1.991-0.025-2.536 0.521l-3.598 2.647c-4.172-2.171-6.743-4.675-8.939-8.711l2.636-3.415c0.685-0.667 0.931-1.64 0.636-2.554-0.605-1.786-0.912-3.66-0.912-5.57 0-1.38-1.152-2.502-2.567-2.502h-5.876c-1.416 0-2.568 1.123-2.568 2.502 0 15.816 13.202 28.682 29.43 28.682 1.416 0 2.568-1.122 2.568-2.502v-5.711c0-1.38-1.152-2.502-2.568-2.502z"></path>
</symbol>


<symbol id="icon-Starempty" viewBox="0 0 34 32">
<path fill="none" stroke="#ab816c" style="stroke: var(--color1, #ab816c)" stroke-linejoin="miter" stroke-linecap="butt" stroke-miterlimit="4" stroke-width="1.6842" d="M15.901 3.050c0.252-0.776 1.35-0.776 1.602 0l2.51 7.726c0.338 1.041 1.308 1.746 2.403 1.746h8.124c0.816 0 1.155 1.044 0.495 1.523l-6.572 4.775c-0.885 0.643-1.256 1.784-0.918 2.825l2.51 7.726c0.252 0.776-0.636 1.421-1.296 0.941l-6.572-4.775c-0.885-0.643-2.084-0.643-2.97 0l-6.572 4.775c-0.66 0.48-1.548-0.166-1.296-0.941l2.51-7.726c0.338-1.041-0.032-2.181-0.918-2.825l-6.572-4.775c-0.66-0.479-0.321-1.523 0.495-1.523h8.124c1.094 0 2.064-0.705 2.403-1.746l2.51-7.726z"></path>
</symbol>


<symbol id="icon-Starfill" viewBox="0 0 34 32">
<path fill="#ab816c" style="fill: var(--color1, #ab816c)" d="M15.381 2.79c0.504-1.552 2.699-1.552 3.204 0l2.51 7.726c0.226 0.694 0.872 1.164 1.602 1.164h8.124c1.632 0 2.31 2.088 0.99 3.047l-6.572 4.775c-0.59 0.429-0.837 1.189-0.612 1.883l2.51 7.726c0.504 1.552-1.272 2.842-2.592 1.883l-6.572-4.775c-0.59-0.429-1.39-0.429-1.98 0l-6.572 4.775c-1.32 0.959-3.096-0.331-2.592-1.883l2.51-7.726c0.225-0.694-0.022-1.454-0.612-1.883l-6.572-4.775c-1.32-0.959-0.642-3.047 0.99-3.047h8.124c0.73 0 1.376-0.47 1.602-1.164l2.51-7.726z"></path>
</symbol>


<symbol id="icon-kost" viewBox="0 0 32 32">
<path fill="#674d40" style="fill: var(--color2, #674d40)" d="M24.62 14.939c0-6.705-6.16-11.099-12.31-11.099-6.175 0-12.31 4.415-12.31 11.099 0 2.529 0.965 5.001 2.718 6.963 0.067 0.075 0.093 0.189 0.067 0.297-0.551 2.314-1.855 4.404-2.39 5.196-0.166 0.246-0.194 0.572-0.071 0.85 0.12 0.272 0.356 0.438 0.621 0.438 0.006 0 0.012 0 0.018-0 2.618-0.075 5.653-0.923 7.529-3.039 0.066-0.074 0.16-0.103 0.252-0.078 1.153 0.314 2.353 0.473 3.566 0.473 6.173-0 12.31-4.414 12.31-11.099zM8.96 24.519c-0.408-0.111-0.828 0.023-1.125 0.358-1.876 2.116-4.939 2.597-6.39 2.704 0.662-1.049 1.74-2.976 2.244-5.099 0.115-0.485-0.006-1.003-0.317-1.351-1.593-1.783-2.435-3.924-2.435-6.193 0-5.527 5.102-10.024 11.373-10.024s11.373 4.497 11.373 10.024-5.102 10.024-11.373 10.024c-1.141 0-2.268-0.149-3.35-0.444z"></path>
<path fill="#674d40" style="fill: var(--color2, #674d40)" d="M27.635 23.875c2.733-1.584 4.365-4.285 4.365-7.224 0-4.154-3.273-7.703-7.782-8.44-0.256-0.042-0.494 0.163-0.53 0.457s0.142 0.566 0.398 0.608c4.043 0.66 6.977 3.762 6.977 7.375 0 2.525-1.439 4.867-3.85 6.264-0.469 0.272-0.72 0.873-0.611 1.461 0.228 1.232 0.715 2.373 1.104 3.147-2.768-0.529-3.817-2.052-4.149-2.712-0.205-0.407-0.588-0.659-1.001-0.659-0.001 0-0.002 0-0.004 0h-0.034c-0.52 0-1.040-0.041-1.547-0.123-0.256-0.041-0.493 0.164-0.529 0.458s0.143 0.566 0.399 0.607c0.55 0.089 1.114 0.133 1.677 0.133h0.039c0.078 0 0.15 0.046 0.188 0.122 1.27 2.524 4.188 3.169 5.384 3.329 0.264 0.035 0.516-0.103 0.657-0.362s0.139-0.578-0.005-0.835c-0.36-0.644-1.003-1.932-1.262-3.328-0.021-0.111 0.027-0.226 0.117-0.278z"></path>
<path fill="#674d40" style="fill: var(--color2, #674d40)" d="M5.016 13.016c-0.896 0-1.625 0.836-1.625 1.864s0.729 1.864 1.625 1.864c0.896 0 1.625-0.836 1.625-1.864s-0.729-1.864-1.625-1.864zM5.016 15.668c-0.379 0-0.687-0.354-0.687-0.788s0.308-0.788 0.687-0.788 0.687 0.354 0.687 0.788c0 0.435-0.308 0.788-0.687 0.788z"></path>
<path fill="#674d40" style="fill: var(--color2, #674d40)" d="M9.651 13.016c-0.896 0-1.625 0.836-1.625 1.864s0.729 1.864 1.625 1.864c0.896 0 1.625-0.836 1.625-1.864s-0.729-1.864-1.625-1.864zM9.651 15.668c-0.379 0-0.687-0.354-0.687-0.788s0.308-0.788 0.687-0.788 0.687 0.354 0.687 0.788c0 0.435-0.308 0.788-0.687 0.788z"></path>
<path fill="#674d40" style="fill: var(--color2, #674d40)" d="M14.285 13.016c-0.896 0-1.625 0.836-1.625 1.864s0.729 1.864 1.625 1.864c0.896 0 1.625-0.836 1.625-1.864s-0.729-1.864-1.625-1.864zM14.285 15.668c-0.379 0-0.687-0.354-0.687-0.788s0.308-0.788 0.687-0.788c0.379 0 0.687 0.354 0.687 0.788s-0.308 0.788-0.687 0.788z"></path>
<path fill="#674d40" style="fill: var(--color2, #674d40)" d="M18.92 13.016c-0.896 0-1.625 0.836-1.625 1.864s0.729 1.864 1.625 1.864c0.896 0 1.625-0.836 1.625-1.864s-0.729-1.864-1.625-1.864zM18.92 15.668c-0.379 0-0.687-0.354-0.687-0.788s0.308-0.788 0.687-0.788c0.379 0 0.687 0.354 0.687 0.788s-0.308 0.788-0.687 0.788z"></path>
</symbol>


<symbol id="icon-number" viewBox="0 0 32 32">
<path fill="#674d40" style="fill: var(--color2, #674d40)" d="M11.887 0c-3.293 0-5.976 3.077-5.976 6.856s2.682 6.856 5.976 6.856c3.293 0 5.976-3.077 5.976-6.856s-2.682-6.856-5.976-6.856zM11.887 12.562c-2.749 0-4.98-2.566-4.98-5.713s2.236-5.713 4.98-5.713c2.749 0 4.98 2.566 4.98 5.713s-2.236 5.713-4.98 5.713z"></path>
<path fill="#674d40" style="fill: var(--color2, #674d40)" d="M24.126 2.846c-2.474 0-4.485 2.306-4.485 5.145s2.010 5.145 4.485 5.145c2.475 0 4.485-2.306 4.485-5.145s-2.010-5.145-4.485-5.145zM24.126 12.001c-1.925 0-3.489-1.795-3.489-4.003s1.564-4.003 3.489-4.003c1.925 0 3.489 1.795 3.489 4.003s-1.564 4.003-3.489 4.003z"></path>
<path fill="#674d40" style="fill: var(--color2, #674d40)" d="M32.148 20.679c-0.452-3.126-2.145-5.762-5.028-7.143 0 0-1.277 1.108-2.994 1.072-1.876-0.042-2.994-1.072-2.994-1.072s-1.393 0.596-2.517 1.837c-1.039-1.058-2.792-1.921-2.792-1.921s-1.607 1.402-3.941 1.381c-2.45-0.021-3.929-1.381-3.929-1.381s-5.297 2.089-6.415 9.176c0 0-1.198 3.757 1.576 9.372h17.554c0 0 1.246-2.488 1.466-4.003h8.731c2.145-3.729 1.283-7.318 1.283-7.318zM20.050 30.857h-16.32c-2.132-4.648-1.21-8.040-1.21-8.040 0.519-3.554 2.511-6.554 5.358-8.075 2.444 1.647 5.578 1.647 8.022 0 2.847 1.521 4.839 4.521 5.358 8.075-0.006 0 0.88 4.178-1.21 8.040zM30.285 26.855h-7.949c0.305-2.019-0.098-4.227-0.098-4.227-0.36-2.495-1.387-4.746-2.89-6.484 0.513-0.533 1.081-0.974 1.705-1.318 1.876 1.234 4.265 1.234 6.141 0 2.108 1.157 3.587 3.393 3.972 6.042 0 0 0.727 2.832-0.88 5.986z"></path>
</symbol>


<symbol id="icon-time" viewBox="0 0 32 32">
<path fill="#674d40" style="fill: var(--color2, #674d40)" d="M16 0c-8.822 0-16 7.178-16 16s7.178 16 16 16c8.822 0 16-7.178 16-16s-7.178-16-16-16zM16 30.933c-8.234 0-14.933-6.699-14.933-14.933s6.699-14.933 14.933-14.933c8.234 0 14.933 6.699 14.933 14.933s-6.699 14.933-14.933 14.933z"></path>
<path fill="#674d40" style="fill: var(--color2, #674d40)" d="M16.533 13.878v-5.409c0-0.295-0.239-0.533-0.533-0.533s-0.533 0.238-0.533 0.533v5.409c-0.746 0.194-1.33 0.778-1.524 1.524h-3.809c-0.294 0-0.533 0.238-0.533 0.533s0.239 0.533 0.533 0.533h3.809c0.238 0.917 1.067 1.6 2.058 1.6 1.177 0 2.133-0.957 2.133-2.133 0-0.992-0.683-1.819-1.6-2.058zM16 17.002c-0.588 0-1.067-0.478-1.067-1.067s0.478-1.067 1.067-1.067c0.588 0 1.067 0.478 1.067 1.067s-0.478 1.067-1.067 1.067z"></path>
<path fill="#674d40" style="fill: var(--color2, #674d40)" d="M16 5.269c0.294 0 0.533-0.238 0.533-0.533v-0.533c0-0.295-0.239-0.533-0.533-0.533s-0.533 0.238-0.533 0.533v0.533c0 0.295 0.239 0.533 0.533 0.533z"></path>
<path fill="#674d40" style="fill: var(--color2, #674d40)" d="M16 26.602c-0.294 0-0.533 0.238-0.533 0.533v0.533c0 0.295 0.239 0.533 0.533 0.533s0.533-0.238 0.533-0.533v-0.533c0-0.295-0.239-0.533-0.533-0.533z"></path>
<path fill="#674d40" style="fill: var(--color2, #674d40)" d="M27.733 15.402h-0.533c-0.294 0-0.533 0.238-0.533 0.533s0.239 0.533 0.533 0.533h0.533c0.294 0 0.533-0.238 0.533-0.533s-0.239-0.533-0.533-0.533z"></path>
<path fill="#674d40" style="fill: var(--color2, #674d40)" d="M4.8 15.402h-0.533c-0.294 0-0.533 0.238-0.533 0.533s0.239 0.533 0.533 0.533h0.533c0.294 0 0.533-0.238 0.533-0.533s-0.239-0.533-0.533-0.533z"></path>
<path fill="#674d40" style="fill: var(--color2, #674d40)" d="M23.919 7.262l-0.377 0.377c-0.209 0.209-0.209 0.546 0 0.754 0.104 0.104 0.241 0.156 0.377 0.156s0.273-0.052 0.377-0.156l0.377-0.377c0.209-0.209 0.209-0.546 0-0.754s-0.546-0.208-0.754 0z"></path>
<path fill="#674d40" style="fill: var(--color2, #674d40)" d="M7.703 23.478l-0.377 0.377c-0.209 0.209-0.209 0.546 0 0.754 0.104 0.104 0.241 0.156 0.377 0.156s0.273-0.052 0.377-0.156l0.377-0.377c0.209-0.209 0.209-0.546 0-0.754s-0.546-0.208-0.754 0z"></path>
<path fill="#674d40" style="fill: var(--color2, #674d40)" d="M24.297 23.478c-0.209-0.209-0.546-0.209-0.754 0s-0.209 0.546 0 0.754l0.377 0.377c0.104 0.104 0.241 0.156 0.377 0.156s0.273-0.052 0.377-0.156c0.209-0.209 0.209-0.546 0-0.754l-0.377-0.377z"></path>
<path fill="#674d40" style="fill: var(--color2, #674d40)" d="M8.081 7.261c-0.209-0.209-0.546-0.209-0.754 0s-0.209 0.546 0 0.754l0.377 0.377c0.104 0.104 0.241 0.156 0.377 0.156s0.273-0.052 0.377-0.156c0.209-0.209 0.209-0.546 0-0.754l-0.377-0.377z"></path>
</symbol>


<symbol id="icon-type" viewBox="0 0 32 32">
<path fill="#674d40" style="fill: var(--color2, #674d40)" d="M23.047 8.572c-0.114 0-0.223-0.052-0.304-0.144s-0.126-0.218-0.126-0.349c-0.033-1.889-0.711-3.688-1.887-5.011s-2.758-2.063-4.405-2.063-3.229 0.741-4.405 2.063c-1.176 1.323-1.854 3.122-1.887 5.011 0 0.131-0.045 0.256-0.126 0.349s-0.19 0.144-0.304 0.144c-0.114 0-0.223-0.052-0.304-0.144s-0.126-0.218-0.126-0.349c0.029-2.154 0.795-4.209 2.134-5.72s3.141-2.359 5.018-2.359c1.878 0 3.68 0.847 5.018 2.359s2.104 3.566 2.134 5.72c0 0.131-0.045 0.256-0.126 0.349s-0.19 0.144-0.304 0.144z"></path>
<path fill="#674d40" style="fill: var(--color2, #674d40)" d="M24.302 19.732c-0.114 0.001-0.224-0.050-0.305-0.142s-0.127-0.217-0.128-0.348c-0.001-0.131 0.044-0.256 0.124-0.35s0.189-0.146 0.303-0.147c1.637-0.011 3.205-0.759 4.366-2.082s1.824-3.117 1.846-4.995c-0.016-1.896-0.688-3.708-1.866-5.037s-2.769-2.068-4.422-2.054c-0.635-0.001-1.266 0.106-1.873 0.319-0.108 0.036-0.225 0.022-0.324-0.040s-0.174-0.166-0.207-0.289c-0.033-0.124-0.022-0.258 0.030-0.373s0.142-0.202 0.249-0.241c0.689-0.241 1.405-0.363 2.125-0.362 1.881-0.014 3.69 0.829 5.030 2.343s2.102 3.577 2.118 5.734c-0.022 2.137-0.774 4.179-2.095 5.687s-3.104 2.361-4.967 2.376h-0.005z"></path>
<path fill="#674d40" style="fill: var(--color2, #674d40)" d="M8.346 19.732h-0.005c-1.863-0.015-3.646-0.868-4.967-2.376s-2.073-3.55-2.095-5.687c0.016-2.158 0.778-4.22 2.118-5.734s3.149-2.357 5.030-2.343c0.72-0.001 1.436 0.121 2.125 0.362 0.055 0.018 0.106 0.049 0.15 0.090s0.081 0.092 0.108 0.149c0.027 0.058 0.044 0.121 0.050 0.186s-0 0.131-0.017 0.193c-0.017 0.063-0.044 0.121-0.081 0.171s-0.081 0.092-0.132 0.122c-0.050 0.030-0.106 0.049-0.163 0.054s-0.114-0.002-0.168-0.022c-0.607-0.212-1.238-0.32-1.873-0.319-1.653-0.014-3.243 0.725-4.422 2.054s-1.85 3.141-1.866 5.037c0.021 1.878 0.684 3.671 1.846 4.995s2.729 2.071 4.366 2.082c0.056 0 0.112 0.014 0.164 0.039s0.099 0.062 0.139 0.108 0.071 0.101 0.092 0.161c0.021 0.060 0.032 0.124 0.032 0.189s-0.012 0.129-0.034 0.189c-0.022 0.060-0.054 0.114-0.094 0.159s-0.088 0.082-0.14 0.106-0.108 0.037-0.165 0.036z"></path>
<path fill="#674d40" style="fill: var(--color2, #674d40)" d="M24.302 32h-15.955c-0.114 0-0.223-0.052-0.304-0.145s-0.126-0.218-0.126-0.349v-12.267c0-0.131 0.045-0.256 0.126-0.349s0.19-0.144 0.304-0.144 0.223 0.052 0.304 0.144c0.081 0.093 0.126 0.218 0.126 0.349v11.774h15.096v-11.774c0-0.131 0.045-0.256 0.126-0.349s0.19-0.144 0.304-0.144c0.114 0 0.223 0.052 0.304 0.144s0.126 0.218 0.126 0.349v12.267c0 0.131-0.045 0.256-0.126 0.349s-0.19 0.145-0.304 0.145z"></path>
<path fill="#674d40" style="fill: var(--color2, #674d40)" d="M27.294 27.222h-15.955c-0.114 0-0.223-0.052-0.304-0.145s-0.126-0.218-0.126-0.349c0-0.131 0.045-0.256 0.126-0.349s0.19-0.145 0.304-0.145h15.955c0.114 0 0.223 0.052 0.304 0.145s0.126 0.218 0.126 0.349c0 0.131-0.045 0.256-0.126 0.349s-0.19 0.145-0.304 0.145z"></path>
</symbol>


<symbol id="icon-instagram" viewBox="0 0 32 32">
<path d="M16.316 32c-0.106 0-0.212 0-0.319-0-2.508 0.006-4.826-0.058-7.080-0.195-2.066-0.126-3.953-0.84-5.455-2.065-1.45-1.182-2.44-2.781-2.942-4.75-0.438-1.715-0.461-3.398-0.483-5.026-0.016-1.168-0.033-2.553-0.036-3.96 0.003-1.414 0.020-2.798 0.036-3.966 0.022-1.628 0.045-3.311 0.483-5.026 0.503-1.97 1.493-3.568 2.942-4.75 1.503-1.225 3.389-1.939 5.456-2.065 2.254-0.137 4.572-0.201 7.086-0.195 2.509-0.005 4.826 0.058 7.080 0.195 2.066 0.126 3.953 0.84 5.455 2.065 1.45 1.182 2.44 2.781 2.943 4.75 0.437 1.715 0.461 3.398 0.483 5.026 0.016 1.168 0.033 2.553 0.036 3.96v0.006c-0.003 1.408-0.020 2.792-0.036 3.96-0.022 1.628-0.045 3.311-0.483 5.026-0.503 1.97-1.493 3.568-2.943 4.75-1.502 1.225-3.389 1.939-5.455 2.065-2.159 0.131-4.376 0.195-6.768 0.195zM15.997 29.5c2.468 0.006 4.733-0.056 6.934-0.19 1.563-0.095 2.917-0.602 4.027-1.507 1.026-0.837 1.732-1.991 2.1-3.431 0.364-1.428 0.385-2.96 0.406-4.442 0.016-1.16 0.032-2.535 0.036-3.929-0.004-1.394-0.020-2.769-0.036-3.929-0.020-1.482-0.041-3.015-0.406-4.443-0.367-1.44-1.074-2.594-2.1-3.431-1.11-0.905-2.465-1.412-4.027-1.507-2.201-0.134-4.467-0.196-6.928-0.19-2.467-0.006-4.733 0.056-6.934 0.19-1.563 0.095-2.917 0.602-4.027 1.507-1.026 0.837-1.732 1.991-2.1 3.431-0.364 1.428-0.385 2.96-0.406 4.443-0.016 1.161-0.032 2.537-0.036 3.932 0.003 1.389 0.020 2.765 0.036 3.926 0.020 1.482 0.041 3.015 0.406 4.442 0.367 1.44 1.074 2.594 2.1 3.431 1.11 0.905 2.465 1.412 4.027 1.507 2.201 0.134 4.467 0.197 6.928 0.191zM15.937 23.812c-4.308 0-7.813-3.505-7.813-7.812s3.505-7.813 7.813-7.813c4.308 0 7.813 3.505 7.813 7.813s-3.505 7.812-7.813 7.812zM15.937 10.687c-2.929 0-5.313 2.383-5.313 5.313s2.383 5.312 5.313 5.312c2.93 0 5.313-2.383 5.313-5.312s-2.383-5.313-5.313-5.313zM24.625 5.687c-1.035 0-1.875 0.839-1.875 1.875s0.84 1.875 1.875 1.875c1.036 0 1.875-0.839 1.875-1.875s-0.839-1.875-1.875-1.875z"></path>
</symbol>


<symbol id="icon-twiter" viewBox="0 0 32 32">
<path d="M32 5.441c-1.19 0.583-2.458 0.97-3.78 1.158 1.36-0.908 2.398-2.334 2.886-4.053-1.268 0.845-2.668 1.442-4.16 1.775-1.204-1.433-2.92-2.321-4.792-2.321-3.632 0-6.556 3.295-6.556 7.335 0 0.581 0.044 1.14 0.152 1.672-5.454-0.297-10.28-3.219-13.522-7.671-0.566 1.098-0.898 2.354-0.898 3.707 0 2.54 1.17 4.791 2.914 6.095-1.054-0.022-2.088-0.364-2.964-0.903 0 0.022 0 0.051 0 0.080 0 3.564 2.274 6.524 5.256 7.206-0.534 0.163-1.116 0.241-1.72 0.241-0.42 0-0.844-0.027-1.242-0.125 0.85 2.904 3.262 5.039 6.13 5.109-2.232 1.952-5.066 3.128-8.134 3.128-0.538 0-1.054-0.027-1.57-0.101 2.906 2.095 6.35 3.291 10.064 3.291 12.072 0 18.672-11.178 18.672-20.868 0-0.324-0.010-0.637-0.024-0.948 1.302-1.033 2.396-2.323 3.288-3.807z"></path>
</symbol>


<symbol id="icon-facebook" viewBox="0 0 32 32">
<path d="M22.512 0.007l-3.617-0.007c-4.064 0-6.69 3.091-6.69 7.875v3.631h-3.637c-0.314 0-0.569 0.292-0.569 0.653v5.261c0 0.361 0.255 0.652 0.569 0.652h3.637v13.275c0 0.36 0.254 0.652 0.569 0.652h4.745c0.314 0 0.569-0.292 0.569-0.652v-13.275h4.252c0.314 0 0.569-0.292 0.569-0.652l0.002-5.261c0-0.173-0.060-0.339-0.167-0.461s-0.252-0.191-0.402-0.191h-4.254v-3.078c0-1.479 0.307-2.23 1.987-2.23l2.437-0.001c0.314 0 0.568-0.292 0.568-0.652v-4.885c0-0.36-0.254-0.652-0.568-0.652z"></path>
</symbol>


<symbol id="icon-logo" viewBox="0 0 61 32">
<path d="M36.151 16.031c0 0.256-0.007 0.512 0 0.768 0.076 2.603-0.629 4.949-1.762 7.16-0.38 0.742-0.743 1.496-1.070 2.271-0.27 0.637-0.645 1.083-1.228 1.344-0.326 0.145-0.628 0.397-0.901 0.657-1.257 1.196-2.683 2.052-4.208 2.655-1.013 0.4-2.056 0.753-3.156 0.737-0.328-0.004-0.657 0.112-0.986 0.113s-0.657-0.122-0.983-0.105c-1.419 0.070-2.734-0.433-4.039-0.961-1.424-0.576-2.682-1.485-3.865-2.569-1.67-1.529-2.859-3.454-3.734-5.658-0.471-1.188-0.855-2.414-0.964-3.733-0.018-0.219-0.081-0.435-0.137-0.648-0.397-1.479-0.169-2.929 0.077-4.403 0.188-1.127 0.381-2.24 0.747-3.31 0.967-2.83 2.502-5.148 4.628-6.968 1.773-1.516 3.757-2.448 5.914-2.848 2.475-0.459 4.892-0.129 7.236 0.945 1.17 0.537 2.274 1.218 3.238 2.119 0.899 0.84 1.71 1.824 2.477 2.829 0.694 0.911 1.187 1.996 1.628 3.103 0.688 1.729 1.136 3.519 1.090 5.443-0.010 0.355-0.003 0.708-0.003 1.060zM35.201 12.527c-0.068-0.604-0.111-1.305-0.239-1.984-0.365-1.955-1.348-3.482-2.658-4.728-0.744-0.709-1.554-1.324-2.354-1.951-0.271-0.212-0.585-0.407-0.901-0.472-0.812-0.172-1.634-0.333-2.457-0.382-1.429-0.084-2.713-0.509-3.792-1.653-0.794-0.842-1.659-0.924-2.485-0.182-0.936 0.839-2 1.332-3.086 1.82-0.795 0.357-1.561 0.808-2.326 1.253-0.639 0.372-1.011 0.953-1.002 1.833 0.005 0.493-0.191 0.905-0.588 1.179-0.331 0.229-0.649 0.483-0.951 0.759-0.846 0.767-1.505 1.631-1.647 2.971-0.113 1.060-0.391 2.108-1.022 2.981-0.211 0.3-0.341 0.665-0.376 1.049-0.058 0.792-0.034 1.594-0.017 2.392 0.005 0.213 0.085 0.442 0.18 0.63 0.218 0.444 0.455 0.874 0.711 1.29 0.619 0.992 1.158 2.008 1.282 3.268 0.12 1.22 0.632 2.215 1.498 2.974 1.254 1.1 2.463 2.268 3.736 3.339 0.684 0.577 1.417 1.082 2.319 1.199s1.787 0.4 2.596 0.924c0.17 0.105 0.356 0.171 0.547 0.193 1.142 0.142 2.198-0.184 3.2-0.799 0.314-0.193 0.638-0.368 0.963-0.536 0.783-0.404 1.652-0.669 2.334-1.232 0.759-0.627 1.571-0.905 2.442-1.081 0.376-0.076 0.684-0.255 0.929-0.577 0.292-0.383 0.563-0.787 0.868-1.157 0.315-0.381 0.543-0.787 0.598-1.331 0.084-0.833 0.394-1.569 0.787-2.276 0.665-1.194 1.043-2.514 1.24-3.918 0.052-0.368 0.081-0.679-0.077-1.003-0.458-0.935-0.271-1.997-0.416-2.992-0.073-0.538 0.095-1.127 0.166-1.797l-0.002 0.001zM29.692 3.187c-0.193-0.246-0.255-0.357-0.342-0.426-0.158-0.126-0.33-0.229-0.498-0.338-1.437-0.932-3.010-1.385-4.618-1.711-0.323-0.066-0.663-0.036-0.992-0.022-0.086 0.004-0.188 0.1-0.243 0.186-0.025 0.039 0.031 0.177 0.079 0.243 0.358 0.491 0.824 0.861 1.35 1.072 0.908 0.376 1.862 0.583 2.826 0.611 0.408 0.013 0.816 0.102 1.223 0.166 0.347 0.057 0.693 0.125 1.216 0.219zM17.486 30.053c-0.964-0.908-1.81-1.719-2.67-2.509-0.712-0.654-1.44-1.285-2.168-1.915-0.082-0.071-0.211-0.069-0.39-0.122 0.877 1.696 3.806 4.273 5.227 4.546zM10.988 8.869c0.582-0.512 1.12-1.050 1.71-1.496 0.828-0.622 1.145-1.394 0.949-2.721-0.588 0.554-1.007 1.22-1.46 1.826-0.479 0.639-0.834 1.4-1.233 2.115-0.031 0.058 0.019 0.172 0.034 0.276zM30.602 28.224c-0.543-0.043-1.089 0.067-1.429 0.405-0.646 0.64-1.414 0.961-2.196 1.281-0.41 0.168-0.797 0.414-1.184 0.649-0.053 0.032-0.063 0.205-0.052 0.307 0.004 0.034 0.148 0.091 0.208 0.067 0.702-0.276 1.427-0.498 2.092-0.866 0.815-0.45 1.58-1.021 2.36-1.55 0.082-0.053 0.125-0.178 0.201-0.294zM9.875 19.353c-0.156 0.529-0.125 0.823-0.027 1.135 0.272 0.866 0.437 1.78 0.927 2.537 0.182 0.281 0.219 0.908 0.554 0.773 0.295-0.118-0.050-0.615-0.070-0.95-0.077-1.28-0.662-2.311-1.384-3.495zM15.138 3.415l0.073 0.126c0.405-0.173 0.814-0.337 1.216-0.522 0.872-0.403 1.741-0.813 2.608-1.231 0.175-0.085 0.335-0.221 0.484-0.359 0.042-0.039 0.034-0.172 0.021-0.254-0.007-0.037-0.089-0.076-0.137-0.079-0.081 0.002-0.162 0.017-0.239 0.046-1.178 0.385-2.289 0.956-3.352 1.648-0.249 0.162-0.45 0.414-0.673 0.624zM35.828 17.16c0.071-0.095 0.127-0.135 0.131-0.18 0.115-1.394-0.013-2.776-0.179-4.154-0.008-0.069-0.092-0.168-0.148-0.177-0.063-0.009-0.16 0.050-0.198 0.115-0.062 0.102-0.101 0.221-0.113 0.345-0.063 1.137 0.003 2.278 0.194 3.395 0.038 0.226 0.2 0.424 0.314 0.655zM9.591 13.312c0.46-0.202 0.528-0.568 0.578-0.898 0.12-0.805 0.42-1.58 0.321-2.431-0.481 1.016-0.907 2.045-0.899 3.329h-0zM20.718 30.985c-1.031-0.525-1.31-0.58-2.228-0.433 0.389 0.17 0.739 0.439 1.091 0.444 0.367 0.006 0.765 0.524 1.137-0.011h-0z"></path>
<path d="M22.843 20.542c-0.705-0.015-1.189-0.354-1.547-1.011-0.334-0.612-0.889-0.93-1.398-1.307-0.641-0.475-1.163-1.011-1.311-1.975-0.103-0.653 0.017-1.22 0.247-1.736 0.193-0.431 0.538-0.831 0.9-1.088 0.393-0.278 0.718-0.54 0.9-1.053 0.205-0.591 0.722-0.626 1.18-0.733 0.431-0.1 0.87-0.164 1.295-0.289 0.582-0.171 1.109-0.118 1.534 0.403 0.328 0.405 0.712 0.695 1.139 0.941 0.445 0.255 0.591 0.553 0.452 1.086-0.095 0.362-0.003 0.608 0.114 0.897 0.128 0.315 0.26 0.635 0.348 0.968 0.293 1.107-0.044 2.039-0.946 2.532-0.559 0.305-0.987 0.713-1.126 1.429-0.056 0.289-0.212 0.452-0.433 0.527-0.446 0.15-0.899 0.274-1.348 0.409zM25.801 15.901c0.014-1.95-1.269-3.51-2.938-3.512-1.498 0-3.004 1.167-3.063 3.404-0.047 1.79 1.248 3.458 2.936 3.464 2.056 0.012 3.025-1.632 3.065-3.356zM19.784 17.765c0-0.25 0.021-0.378-0.003-0.493-0.221-1.059-0.365-2.109 0.137-3.129 0.036-0.073-0.047-0.224-0.075-0.339-0.099 0.037-0.218 0.044-0.292 0.115-0.83 0.784-1.2 2.667 0.234 3.847zM22.865 11.9c0.347 0.146 0.545 0.25 0.753 0.315 0.765 0.233 1.417 0.652 1.871 1.424 0.090 0.152 0.205 0.378 0.376 0.205 0.091-0.092 0.121-0.375 0.068-0.516-0.071-0.188-0.232-0.422-0.386-0.459-0.42-0.101-0.65-0.452-0.924-0.757-0.46-0.509-0.975-0.669-1.758-0.211zM22.818 19.576l-0.010-0.074c-0.22 0-0.443-0.022-0.66 0.009-0.112 0.016-0.213 0.125-0.319 0.192 0.096 0.098 0.18 0.252 0.291 0.284 0.593 0.172 1.19 0.209 1.774-0.054 0.1-0.045 0.211-0.104 0.274-0.197 0.055-0.079 0.074-0.218 0.062-0.324-0.004-0.039-0.143-0.099-0.211-0.086-0.401 0.072-0.801 0.164-1.2 0.249l-0.002 0.001zM25.848 17.576c0.41-0.088 0.594-0.354 0.618-0.764 0.018-0.345 0.013-0.692-0.013-1.037-0.006-0.091-0.117-0.172-0.179-0.258-0.091 0.1-0.277 0.233-0.26 0.293 0.167 0.598-0.182 1.133-0.166 1.764v0.001z"></path>
<path d="M29.603 20.276c-0.024 0.014-0.119 0.106-0.222 0.118-0.094 0.013-0.231-0.024-0.289-0.099-0.292-0.379-0.575-0.769-0.836-1.176-0.068-0.107-0.096-0.394-0.057-0.418 0.128-0.081 0.379-0.167 0.435-0.096 0.33 0.419 0.621 0.88 0.919 1.332 0.029 0.045 0.020 0.123 0.050 0.34z"></path>
<path d="M15.628 23.56c0.153 0.014 0.454 0.025 0.748 0.083 0.073 0.015 0.171 0.18 0.171 0.278s-0.084 0.268-0.158 0.289c-0.571 0.163-1.14 0.204-1.645-0.236-0.029-0.031-0.051-0.068-0.065-0.11s-0.019-0.087-0.016-0.132c0.011-0.066 0.1-0.157 0.159-0.162 0.219-0.021 0.439-0.009 0.806-0.009z"></path>
<path d="M33.53 9.716l0.216 0.136c-0.061 0.126-0.099 0.33-0.188 0.366-0.411 0.174-0.833 0.313-1.263 0.415-0.123 0.028-0.303-0.112-0.417-0.227-0.131-0.133-0.053-0.423 0.113-0.452 0.487-0.086 0.977-0.152 1.539-0.238z"></path>
<path d="M18.988 26.378c0.229 0.123 0.42 0.157 0.513 0.289 0.256 0.365 0.49 0.75 0.7 1.152 0.103 0.191 0.009 0.398-0.164 0.454-0.095 0.030-0.266-0.059-0.336-0.157-0.279-0.387-0.537-0.792-0.774-1.214-0.055-0.1 0.030-0.302 0.061-0.522z"></path>
<path d="M27.954 11.145c0.014-0.112 0-0.24 0.046-0.289 0.062-0.065 0.194-0.118 0.257-0.083 0.087 0.048 0.143 0.178 0.202 0.281 0.166 0.286 0.329 0.573 0.487 0.866 0.070 0.131 0.165 0.271 0.171 0.412 0.007 0.131-0.062 0.3-0.148 0.39-0.048 0.050-0.244 0.018-0.292-0.052-0.316-0.463-0.695-0.896-0.723-1.526z"></path>
<path d="M28.938 6.23c-0.068 0.472-0.096 0.82-0.175 1.153-0.050 0.18-0.145 0.339-0.274 0.456-0.091 0.084-0.249 0.072-0.376 0.103-0.010-0.137-0.048-0.281-0.026-0.411 0.067-0.402 0.156-0.8 0.236-1.199 0.006-0.031 0.004-0.064 0.012-0.094 0.063-0.241 0.199-0.424 0.417-0.325 0.11 0.050 0.161 0.271 0.186 0.317z"></path>
<path d="M23.040 9.302c0.192 0.028 0.441 0.043 0.678 0.109 0.081 0.022 0.201 0.191 0.187 0.263-0.025 0.13-0.118 0.3-0.217 0.339-0.157 0.056-0.324 0.057-0.482 0.003-0.274-0.1-0.529-0.134-0.801-0.002-0.179 0.087-0.348-0.004-0.395-0.21-0.064-0.276 0.116-0.409 0.318-0.448 0.216-0.041 0.438-0.035 0.713-0.053z"></path>
<path d="M27.306 22.874c-0.078 0.391-0.137 0.734-0.221 1.069-0.016 0.066-0.137 0.154-0.187 0.139-0.091-0.026-0.219-0.108-0.237-0.194-0.041-0.185-0.046-0.379-0.014-0.566 0.064-0.343 0.128-0.669 0.007-1.020-0.057-0.168-0.041-0.436 0.181-0.435 0.119 0 0.291 0.17 0.345 0.311 0.087 0.225 0.093 0.489 0.127 0.697z"></path>
<path d="M23.94 22.774c-0.044 0.092-0.066 0.2-0.125 0.246-0.36 0.286-0.721 0.573-1.1 0.823-0.097 0.064-0.267 0.024-0.39-0.018-0.181-0.062-0.219-0.336-0.068-0.447 0.415-0.306 0.832-0.609 1.259-0.891 0.068-0.045 0.205 0.004 0.294 0.054 0.060 0.035 0.085 0.146 0.131 0.233z"></path>
<path d="M19.351 4.41c0.058 0.039 0.169 0.074 0.183 0.136 0.143 0.607 0.281 1.215 0.394 1.829 0.031 0.17-0.165 0.265-0.296 0.163-0.414-0.32-0.671-1.507-0.43-2.004 0.025-0.049 0.086-0.074 0.148-0.125z"></path>
<path d="M24.462 6.133c-0.125-0.096-0.259-0.144-0.277-0.227-0.020-0.090 0.045-0.243 0.115-0.315 0.303-0.312 0.621-0.606 0.951-0.88 0.111-0.090 0.342-0.154 0.428-0.083 0.202 0.163 0.096 0.394-0.045 0.562-0.189 0.227-0.376 0.466-0.594 0.65-0.167 0.138-0.381 0.198-0.577 0.294z"></path>
<path d="M16.598 9.338l-0.302 0.329c-0.086-0.107-0.214-0.197-0.25-0.325-0.145-0.502-0.267-1.014-0.382-1.526-0.016-0.070 0.034-0.215 0.085-0.239 0.084-0.039 0.222-0.055 0.285 0 0.126 0.107 0.269 0.25 0.31 0.41 0.108 0.417 0.165 0.853 0.254 1.351z"></path>
<path d="M13.287 17.758c-0.277 0.585-0.488 1.185-1.005 1.504-0.087 0.054-0.279-0.015-0.372-0.1-0.158-0.144 0-0.265 0.077-0.388 0.242-0.384 0.467-0.785 0.724-1.155 0.066-0.095 0.235-0.142 0.35-0.129 0.078 0.008 0.142 0.161 0.226 0.267z"></path>
<path d="M16.421 17.808c0.145 0.096 0.25 0.125 0.269 0.189 0.032 0.104 0.049 0.267 0 0.339-0.079 0.115-0.215 0.181-0.332 0.258-0.303 0.2-0.603 0.412-0.918 0.583-0.096 0.052-0.27 0.036-0.356-0.034-0.176-0.144-0.114-0.376 0.027-0.478 0.433-0.312 0.888-0.585 1.309-0.857z"></path>
<path d="M32.104 15.157c-0.111 0.289-0.268 0.726-0.454 1.146-0.029 0.065-0.209 0.1-0.285 0.061-0.071-0.037-0.148-0.201-0.134-0.29 0.075-0.466 0.157-0.935 0.283-1.385 0.038-0.137 0.211-0.262 0.344-0.308 0.049-0.017 0.178 0.197 0.239 0.328 0.035 0.074 0.006 0.187 0.006 0.448z"></path>
<path d="M13.2 11.678c0.491 0.507 0.432 1.196 0.487 1.831 0.010 0.118-0.117 0.287-0.219 0.372-0.053 0.045-0.27-0.027-0.275-0.069-0.077-0.642-0.137-1.288-0.184-1.934-0.004-0.055 0.112-0.122 0.192-0.201z"></path>
<path d="M24.671 27.379c0.082 0.025 0.163 0.056 0.242 0.091 0.295 0.157 0.591 0.311 0.879 0.484 0.137 0.082 0.274 0.184 0.372 0.315 0.113 0.152-0.016 0.442-0.174 0.403-0.535-0.133-1.058-0.319-1.458-0.779-0.059-0.068-0.058-0.239-0.039-0.352 0.011-0.064 0.115-0.108 0.177-0.162z"></path>
<path d="M18.16 11.864c0.028 0.102 0.126 0.26 0.091 0.359-0.18 0.526-0.388 1.039-0.599 1.549-0.026 0.063-0.137 0.118-0.203 0.108-0.057-0.008-0.137-0.101-0.152-0.172-0.112-0.568 0.241-1.585 0.636-1.841 0.041-0.026 0.106-0.004 0.226-0.004z"></path>
<path d="M33.458 20.489c-0.062-0.045-0.19-0.1-0.257-0.206-0.027-0.042 0.060-0.234 0.134-0.296 0.329-0.276 0.665-0.539 1.015-0.774 0.094-0.063 0.291-0.068 0.36 0.003 0.064 0.066 0.074 0.315 0.016 0.406-0.293 0.471-0.664 0.83-1.268 0.866z"></path>
<path d="M31.426 24.543c-0.254-0.030-0.364-0.033-0.47-0.061-0.045-0.011-0.111-0.072-0.112-0.112-0.005-0.090 0.015-0.179 0.058-0.254 0.054-0.071 0.126-0.122 0.205-0.148 0.391-0.135 0.783-0.271 1.18-0.381 0.086-0.024 0.268 0.042 0.279 0.098 0.026 0.135-0.005 0.297-0.051 0.433-0.024 0.072-0.121 0.131-0.195 0.157-0.34 0.108-0.681 0.204-0.894 0.267z"></path>
<path d="M19.642 21.289c-0.028 0.137-0.074 0.442-0.161 0.729-0.022 0.071-0.193 0.14-0.272 0.114s-0.171-0.175-0.169-0.268c0.008-0.531 0.031-1.063 0.078-1.592 0.010-0.115 0.137-0.217 0.21-0.325 0.088 0.107 0.23 0.201 0.252 0.323 0.050 0.274 0.039 0.562 0.062 1.019z"></path>
<path d="M37.981 4.672c0-1.125 0.236-1.978 0.709-2.559 0.478-0.587 1.091-0.881 1.837-0.881s1.34 0.253 1.78 0.76c0.446 0.507 0.669 1.317 0.669 2.429s-0.236 1.953-0.709 2.522c-0.473 0.569-1.104 0.853-1.893 0.853-0.682 0-1.241-0.226-1.676-0.677-0.225-0.235-0.403-0.559-0.532-0.974-0.124-0.42-0.185-0.912-0.185-1.474zM40.503 1.324c-0.542 0-0.988 0.278-1.337 0.835-0.344 0.556-0.515 1.372-0.515 2.448s0.164 1.861 0.492 2.355c0.327 0.495 0.763 0.742 1.305 0.742 0.548 0 0.994-0.278 1.337-0.835 0.349-0.563 0.524-1.375 0.524-2.439 0-1.069-0.166-1.854-0.499-2.355-0.328-0.501-0.763-0.751-1.305-0.751z"></path>
<path d="M44.37 7.759h-0.669v-6.491h0.669v2.986h2.619v-2.986h0.669v6.491h-0.669v-3.412h-2.619v3.412z"></path>
<path d="M51.095 7.759h-0.105l0.701-6.491h0.266l1.692 5.999 1.684-5.999h0.266l0.701 6.491h-0.669l-0.556-5.192-1.458 5.192h-0.508l-1.474-5.128-0.54 5.128z"></path>
<path d="M60.763 1.269c0.102 0.117 0.153 0.269 0.153 0.454 0 0.155-0.030 0.312-0.089 0.473l-1.442 3.366v2.197h-0.669v-1.994l-1.612-4.497h0.685l1.539 4.182 1.402-3.255c0.059-0.155 0.089-0.315 0.089-0.482s-0.040-0.297-0.121-0.389l0.064-0.056z"></path>
<path d="M1.136 9.465c0.416-0.022 0.823-0.033 1.221-0.033 0.407 0 0.833 0.049 1.278 0.147 0.454 0.098 0.899 0.283 1.335 0.556 0.445 0.261 0.819 0.605 1.122 1.029 0.312 0.414 0.563 0.964 0.753 1.65s0.284 1.52 0.284 2.5-0.142 1.863-0.426 2.647c-0.274 0.773-0.653 1.367-1.136 1.781-0.937 0.806-2.068 1.209-3.393 1.209-0.464 0-0.951-0.022-1.462-0.065h-0.71v-11.421h1.136zM1.178 20.755c0.199 0.022 0.45 0.033 0.752 0.033s0.53-0.005 0.681-0.016c0.151-0.011 0.36-0.054 0.625-0.131 0.265-0.087 0.511-0.202 0.738-0.343s0.464-0.349 0.71-0.621c0.256-0.283 0.473-0.615 0.653-0.997 0.407-0.893 0.611-2.059 0.611-3.497 0-1.024-0.109-1.906-0.327-2.647-0.218-0.752-0.469-1.307-0.752-1.667-0.274-0.359-0.611-0.643-1.008-0.85-0.398-0.218-0.715-0.343-0.951-0.376s-0.511-0.049-0.823-0.049-0.615 0.016-0.909 0.049v11.111z"></path>
<path d="M38.212 20.886h-0.185v-11.438h0.483l5.906 10.572v-10.572h0.185v11.438h-1.036l-5.353-9.477v9.477z"></path>
<path d="M53.343 9.448h0.185v6.536c0 1.71-0.293 2.968-0.88 3.774-0.587 0.795-1.354 1.193-2.3 1.193-0.596 0-1.103-0.060-1.519-0.18-0.417-0.131-0.809-0.365-1.179-0.703-0.757-0.675-1.136-2.037-1.136-4.085v-6.536h1.179v6.519c0 1.983 0.26 3.306 0.781 3.97 0.265 0.327 0.539 0.55 0.824 0.67 0.293 0.12 0.643 0.18 1.051 0.18 0.909 0 1.633-0.381 2.172-1.144 0.549-0.773 0.824-1.999 0.824-3.676v-6.519z"></path>
<path d="M58.371 20.886h-1.179v-11.274h-2.456v-0.163h6.105v0.163h-2.471v11.274z"></path>
</symbol>



<symbol id="icon-burger" viewBox="0 0 60 32">
<path d="M2 0h56c1.105 0 2 0.895 2 2s-0.895 2-2 2h-56c-1.105 0-2-0.895-2-2s0.895-2 2-2z"></path>
<path d="M2 14h56c1.105 0 2 0.895 2 2s-0.895 2-2 2h-56c-1.105 0-2-0.895-2-2s0.895-2 2-2z"></path>
<path d="M2 28h56c1.105 0 2 0.895 2 2s-0.895 2-2 2h-56c-1.105 0-2-0.895-2-2s0.895-2 2-2z"></path>
</symbol>


<symbol id="icon-rate" viewBox="0 0 181 32">
<path fill="#ab816c" style="fill: var(--color1, #ab816c)" d="M14.732 3.903c0.399-1.228 2.137-1.228 2.536 0l2.025 6.232c0.179 0.549 0.691 0.921 1.268 0.921h6.552c1.292 0 1.829 1.653 0.784 2.412l-5.301 3.851c-0.467 0.339-0.663 0.941-0.484 1.491l2.025 6.232c0.399 1.228-1.007 2.25-2.052 1.491l-5.301-3.851c-0.467-0.339-1.1-0.339-1.567 0l-5.301 3.851c-1.045 0.759-2.451-0.262-2.052-1.491l2.025-6.232c0.178-0.549-0.017-1.151-0.484-1.491l-5.301-3.851c-1.045-0.759-0.508-2.412 0.784-2.412h6.552c0.578 0 1.090-0.372 1.268-0.921l2.025-6.232z"></path>
<path fill="none" stroke="#ab816c" style="stroke: var(--color1, #ab816c)" stroke-linejoin="miter" stroke-linecap="butt" stroke-miterlimit="4" stroke-width="1.3333" d="M164.699 4.109c0.2-0.614 1.069-0.614 1.268 0l2.025 6.232c0.268 0.824 1.036 1.382 1.903 1.382h6.552c0.645 0 0.915 0.826 0.392 1.206l-5.301 3.851c-0.701 0.509-0.995 1.412-0.727 2.236l2.025 6.232c0.199 0.614-0.504 1.125-1.027 0.745l-5.3-3.851c-0.701-0.509-1.651-0.509-2.352 0l-5.301 3.851c-0.521 0.38-1.225-0.131-1.025-0.745l2.025-6.232c0.267-0.824-0.027-1.727-0.727-2.236l-5.301-3.851c-0.523-0.38-0.253-1.206 0.392-1.206h6.552c0.867 0 1.635-0.558 1.903-1.382l2.024-6.232z"></path>
<path fill="#ab816c" style="fill: var(--color1, #ab816c)" d="M126.732 3.903c0.399-1.228 2.137-1.228 2.536 0l2.025 6.232c0.179 0.549 0.691 0.921 1.268 0.921h6.553c1.292 0 1.828 1.653 0.784 2.412l-5.301 3.851c-0.468 0.339-0.663 0.941-0.484 1.491l2.024 6.232c0.4 1.228-1.007 2.25-2.052 1.491l-5.3-3.851c-0.467-0.339-1.1-0.339-1.567 0l-5.301 3.851c-1.045 0.759-2.451-0.262-2.052-1.491l2.025-6.232c0.179-0.549-0.017-1.151-0.484-1.491l-5.301-3.851c-1.045-0.759-0.508-2.412 0.784-2.412h6.552c0.578 0 1.089-0.372 1.268-0.921l2.025-6.232z"></path>
<path fill="#ab816c" style="fill: var(--color1, #ab816c)" d="M89.398 3.903c0.399-1.228 2.137-1.228 2.536 0l2.025 6.232c0.179 0.549 0.691 0.921 1.268 0.921h6.552c1.292 0 1.829 1.653 0.784 2.412l-5.301 3.851c-0.467 0.339-0.663 0.941-0.484 1.491l2.025 6.232c0.399 1.228-1.007 2.25-2.052 1.491l-5.301-3.851c-0.467-0.339-1.1-0.339-1.567 0l-5.301 3.851c-1.045 0.759-2.451-0.262-2.052-1.491l2.025-6.232c0.179-0.549-0.017-1.151-0.484-1.491l-5.301-3.851c-1.045-0.759-0.508-2.412 0.784-2.412h6.552c0.578 0 1.089-0.372 1.268-0.921l2.025-6.232z"></path>
<path fill="#ab816c" style="fill: var(--color1, #ab816c)" d="M52.065 3.903c0.399-1.228 2.137-1.228 2.536 0l2.025 6.232c0.179 0.549 0.691 0.921 1.268 0.921h6.552c1.292 0 1.829 1.653 0.784 2.412l-5.301 3.851c-0.467 0.339-0.663 0.941-0.484 1.491l2.025 6.232c0.399 1.228-1.007 2.25-2.052 1.491l-5.301-3.851c-0.467-0.339-1.1-0.339-1.567 0l-5.301 3.851c-1.045 0.759-2.451-0.262-2.052-1.491l2.025-6.232c0.179-0.549-0.017-1.151-0.484-1.491l-5.301-3.851c-1.045-0.759-0.508-2.412 0.784-2.412h6.552c0.578 0 1.089-0.372 1.268-0.921l2.025-6.232z"></path>
</symbol>


<symbol id="icon-rateful" viewBox="0 0 181 32">
<path fill="#ab816c" style="fill: var(--color1, #ab816c)" d="M14.732 3.903c0.399-1.228 2.137-1.228 2.536 0l2.025 6.232c0.178 0.549 0.69 0.921 1.268 0.921h6.552c1.292 0 1.829 1.653 0.784 2.412l-5.301 3.851c-0.467 0.339-0.663 0.941-0.484 1.491l2.025 6.232c0.399 1.228-1.007 2.25-2.052 1.491l-5.301-3.851c-0.467-0.339-1.1-0.339-1.567 0l-5.301 3.851c-1.045 0.759-2.451-0.262-2.052-1.491l2.025-6.232c0.178-0.549-0.017-1.151-0.484-1.491l-5.301-3.851c-1.045-0.759-0.508-2.412 0.784-2.412h6.552c0.578 0 1.090-0.372 1.268-0.921l2.025-6.232z"></path>
<path fill="#ab816c" style="fill: var(--color1, #ab816c)" d="M164.065 3.903c0.399-1.228 2.137-1.228 2.536 0l2.025 6.232c0.179 0.549 0.689 0.921 1.268 0.921h6.552c1.292 0 1.828 1.653 0.784 2.412l-5.301 3.851c-0.467 0.339-0.663 0.941-0.484 1.491l2.024 6.232c0.4 1.228-1.007 2.25-2.051 1.491l-5.301-3.851c-0.468-0.339-1.1-0.339-1.568 0l-5.301 3.851c-1.044 0.759-2.451-0.262-2.051-1.491l2.024-6.232c0.179-0.549-0.017-1.151-0.484-1.491l-5.301-3.851c-1.044-0.759-0.508-2.412 0.784-2.412h6.552c0.579 0 1.089-0.372 1.268-0.921l2.025-6.232z"></path>
<path fill="#ab816c" style="fill: var(--color1, #ab816c)" d="M126.732 3.903c0.399-1.228 2.137-1.228 2.536 0l2.025 6.232c0.178 0.549 0.69 0.921 1.268 0.921h6.552c1.292 0 1.828 1.653 0.784 2.412l-5.301 3.851c-0.467 0.339-0.663 0.941-0.484 1.491l2.024 6.232c0.4 1.228-1.007 2.25-2.051 1.491l-5.302-3.851c-0.467-0.339-1.1-0.339-1.567 0l-5.301 3.851c-1.045 0.759-2.451-0.262-2.052-1.491l2.025-6.232c0.179-0.549-0.017-1.151-0.484-1.491l-5.301-3.851c-1.045-0.759-0.508-2.412 0.784-2.412h6.552c0.578 0 1.090-0.372 1.268-0.921l2.025-6.232z"></path>
<path fill="#ab816c" style="fill: var(--color1, #ab816c)" d="M89.399 3.903c0.399-1.228 2.137-1.228 2.536 0l2.025 6.232c0.178 0.549 0.69 0.921 1.268 0.921h6.552c1.292 0 1.829 1.653 0.784 2.412l-5.301 3.851c-0.467 0.339-0.663 0.941-0.484 1.491l2.025 6.232c0.399 1.228-1.007 2.25-2.052 1.491l-5.301-3.851c-0.467-0.339-1.1-0.339-1.567 0l-5.301 3.851c-1.045 0.759-2.451-0.262-2.052-1.491l2.025-6.232c0.179-0.549-0.017-1.151-0.484-1.491l-5.301-3.851c-1.045-0.759-0.508-2.412 0.784-2.412h6.552c0.578 0 1.090-0.372 1.268-0.921l2.025-6.232z"></path>
<path fill="#ab816c" style="fill: var(--color1, #ab816c)" d="M52.065 3.903c0.399-1.228 2.137-1.228 2.536 0l2.025 6.232c0.178 0.549 0.69 0.921 1.268 0.921h6.552c1.292 0 1.829 1.653 0.784 2.412l-5.301 3.851c-0.467 0.339-0.663 0.941-0.484 1.491l2.025 6.232c0.399 1.228-1.007 2.25-2.052 1.491l-5.301-3.851c-0.467-0.339-1.1-0.339-1.567 0l-5.301 3.851c-1.045 0.759-2.451-0.262-2.052-1.491l2.025-6.232c0.179-0.549-0.017-1.151-0.484-1.491l-5.301-3.851c-1.045-0.759-0.508-2.412 0.784-2.412h6.552c0.578 0 1.090-0.372 1.268-0.921l2.025-6.232z"></path>
</symbol>

</defs>
</svg>
